<svg width="58" height="24" viewBox="0 0 58 24" fill="none" xmlns="http://www.w3.org/2000/svg">
<path d="M4.34389 0.228687C4.04152 0.236345 3.72644 0.335517 3.40964 0.543528C5.21934 0.894697 6.15716 3.4958 5.92822 6.38661C7.5653 3.55194 6.19202 0.181782 4.34389 0.228687Z" fill="#DF1E1E"/>
<path d="M14.7383 2.36494C15.1434 4.63574 13.9238 5.95599 12.8898 3.82571C13.9519 7.7988 17.4499 8.28891 14.7383 2.36494Z" fill="#DF1E1E"/>
<path d="M19.6829 6.8583C21.3788 8.60309 20.8873 11.8714 19.0099 14.5191C22.8734 12.7711 22.8793 7.1573 19.6829 6.8583Z" fill="#DF1E1E"/>
<path d="M1.62542 10.6355C2.55648 13.2493 -2.6622 13.3195 1.89303 18.1866C0.0381854 14.9035 5.10291 14.8638 1.62542 10.6355Z" fill="#DF1E1E"/>
<path d="M7.30778 12.3134C4.91463 5.90152 9.53294 5.47454 6.79923 1.06389C10.162 3.49958 9.73418 7.09416 8.68916 9.16892C12.6612 7.31601 8.42546 1.86042 12.232 0C11.0967 4.93345 13.5724 7.12796 14.4387 7.81646C16.7733 9.67181 17.1184 5.11877 16.0216 3.74823C19.5771 5.48124 18.4889 9.90576 15.205 11.466C16.1261 11.9542 18.6961 12.0629 19.6196 8.81813C20.1835 14.438 15.337 14.769 16.0774 19.6445C16.1709 18.0657 18.0701 16.5165 18.7667 18.5626C17.3647 17.8075 17.0714 21.2902 19.2091 23H2.59033C7.03217 19.7252 -0.092195 18.0363 3.79419 14.95C2.35672 17.6545 5.9684 16.9726 6.93123 19.4769C7.96728 13.8774 0.628351 11.9582 5.02805 5.29874C4.52898 8.98972 6.49562 10.3788 7.30778 12.3134Z" fill="#DF1E1E"/>
<path d="M7.30778 12.3134C7.34988 12.4138 7.38988 12.5152 7.42526 12.6189C7.38431 12.5156 7.34518 12.4137 7.30778 12.3134Z" fill="#DF1E1E"/>
<path d="M50.8889 6.23611H58V8.59723H53.4963V12.9653H57.0756V15.3264H53.4963V20.4028H58V23H50.8889V6.23611Z" fill="white"/>
<path d="M40.7731 6.23611H44.0443L46.5806 16.1292H46.628V6.23611H48.9509V23H46.2724L43.1435 10.6986H43.0961V23H40.7731V6.23611Z" fill="white"/>
<path d="M36.213 6.23611H38.8204V23H36.213V6.23611Z" fill="white"/>
<path d="M30.813 23.2361C29.5646 23.2361 28.6085 22.6458 27.9448 21.9375C27.2969 21.2292 26.973 20.2296 26.973 18.9389V10.0611C26.973 8.77037 27.2969 7.77083 27.9448 7.0625C28.6085 6.35417 29.5646 6 30.813 6C32.0614 6 33.0095 6.35417 33.6574 7.0625C34.3211 7.77083 34.653 8.77037 34.653 10.0611V11.8083H32.1878V9.89583C32.1878 8.87269 31.7532 8.36111 30.8841 8.36111C30.0149 8.36111 29.5804 8.87269 29.5804 9.89583V19.1278C29.5804 20.1352 30.0149 20.6389 30.8841 20.6389C31.7532 20.6389 32.1878 20.1352 32.1878 19.1278V16.6014H34.653V18.9389C34.653 20.2296 34.3211 21.2292 33.6574 21.9375C33.0095 22.6458 32.0614 23.2361 30.813 23.2361Z" fill="white"/>
<path d="M16.7468 8.59723H14.0209V6.23611H22.0802V8.59723H19.3543V23H16.7468V8.59723Z" fill="white"/>
<path d="M10.1481 6.23611H12.7556V23H10.1481V6.23611Z" fill="white"/>
<path d="M2 6.23611H4.60741V20.4028H8.89778V23H2V6.23611Z" fill="white"/>
</svg>
